<svg width="16" height="12" viewBox="0 0 16 12" fill="none" xmlns="http://www.w3.org/2000/svg">
<path d="M12.999 1.33346C12.0668 0.897337 11.0701 0.58038 10.0281 0.399902C9.90015 0.631269 9.75064 0.942462 9.64756 1.19001C8.53988 1.02343 7.44239 1.02343 6.35508 1.19001C6.25202 0.942462 6.09911 0.631269 5.97 0.399902C4.92687 0.58038 3.92903 0.898502 2.9969 1.33577C1.11677 4.17689 0.607095 6.94745 0.861931 9.67866C2.10893 10.6099 3.31743 11.1756 4.50553 11.5458C4.79887 11.142 5.0605 10.7129 5.28589 10.2605C4.85663 10.0974 4.4455 9.89615 4.05703 9.66247C4.16009 9.58612 4.26089 9.5063 4.35829 9.42416C6.7277 10.5324 9.30212 10.5324 11.6432 9.42416C11.7418 9.5063 11.8426 9.58612 11.9445 9.66247C11.5549 9.8973 11.1426 10.0986 10.7134 10.2617C10.9387 10.7129 11.1992 11.1432 11.4937 11.5469C12.683 11.1767 13.8926 10.6111 15.1396 9.67866C15.4386 6.51249 14.6288 3.76738 12.999 1.33346ZM5.60869 7.99899C4.89741 7.99899 4.31411 7.33497 4.31411 6.52636C4.31411 5.71776 4.88496 5.0526 5.60869 5.0526C6.33243 5.0526 6.91572 5.71659 6.90326 6.52636C6.90439 7.33497 6.33243 7.99899 5.60869 7.99899ZM10.3928 7.99899C9.68155 7.99899 9.09825 7.33497 9.09825 6.52636C9.09825 5.71776 9.66908 5.0526 10.3928 5.0526C11.1166 5.0526 11.6999 5.71659 11.6874 6.52636C11.6874 7.33497 11.1166 7.99899 10.3928 7.99899Z" fill="#5E5EDD"/>
</svg>
