<svg width="59" height="36" viewBox="0 0 59 36" fill="none" xmlns="http://www.w3.org/2000/svg">
<g clip-path="url(#clip0_5317_23653)">
<path d="M34.884 0L28.404 3.744V12.78L37.476 18L28.404 23.256V32.292L34.884 36.036L58.248 22.536V13.5L34.884 0ZM29.844 11.952V5.4L38.052 10.152H38.088L44.604 13.896L38.952 17.172L29.844 11.952ZM34.164 33.912L29.844 31.428V24.912L34.164 27.396V33.912ZM30.564 23.652L47.448 13.896L30.564 4.176L34.884 1.692L56.088 13.932L34.884 26.172L30.564 23.652ZM56.808 21.672L35.604 33.912V27.396L56.808 15.156V21.672Z" fill="#D453B5"/>
<path d="M29.844 12.78V3.744L23.364 0L0 13.5V22.536L23.364 36L29.844 32.256V23.22L20.772 18L29.844 12.78ZM22.644 33.912L1.44 21.672V15.156L22.644 27.396V33.912ZM28.404 31.428L24.084 33.912V27.396L28.404 24.912V31.428ZM23.364 26.136L2.16 13.896L23.364 1.656L27.684 4.14L10.8 13.896L27.684 23.652L23.364 26.136ZM13.68 13.896L20.196 10.152H20.232L28.368 5.436L28.404 5.4V11.916L19.332 17.172L13.68 13.896Z" fill="#5E5EDD"/>
</g>
<defs>
<clipPath id="clip0_5317_23653">
<rect width="58.248" height="36" fill="white"/>
</clipPath>
</defs>
</svg>
