<svg width="21" height="21" viewBox="0 0 21 21" fill="none" xmlns="http://www.w3.org/2000/svg">
<path d="M18.6712 9.16683H18V9.13224H10.5V12.4656H15.2096C14.5225 14.406 12.6762 15.7989 10.5 15.7989C7.73874 15.7989 5.49999 13.5602 5.49999 10.7989C5.49999 8.03766 7.73874 5.79891 10.5 5.79891C11.7746 5.79891 12.9342 6.27974 13.8171 7.06516L16.1742 4.70808C14.6858 3.32099 12.695 2.46558 10.5 2.46558C5.89791 2.46558 2.16666 6.19683 2.16666 10.7989C2.16666 15.401 5.89791 19.1322 10.5 19.1322C15.1021 19.1322 18.8333 15.401 18.8333 10.7989C18.8333 10.2402 18.7758 9.69474 18.6712 9.16683Z" fill="#FFC107"/>
<path d="M3.12778 6.92016L5.86569 8.92808C6.60653 7.09391 8.40069 5.79891 10.5003 5.79891C11.7749 5.79891 12.9344 6.27974 13.8174 7.06516L16.1744 4.70808C14.6861 3.32099 12.6953 2.46558 10.5003 2.46558C7.29944 2.46558 4.52361 4.27266 3.12778 6.92016Z" fill="#FF3D00"/>
<path d="M10.5001 19.1322C12.6526 19.1322 14.6085 18.3085 16.0872 16.9689L13.5081 14.7864C12.6433 15.444 11.5866 15.7997 10.5001 15.7989C8.33264 15.7989 6.49222 14.4168 5.79889 12.488L3.08139 14.5818C4.46056 17.2805 7.26139 19.1322 10.5001 19.1322Z" fill="#4CAF50"/>
<path d="M18.6713 9.16666H18V9.13208H10.5V12.4654H15.2096C14.8809 13.3889 14.2889 14.1959 13.5067 14.7867L13.5079 14.7858L16.0871 16.9683C15.9046 17.1342 18.8333 14.9654 18.8333 10.7987C18.8333 10.24 18.7758 9.69458 18.6713 9.16666Z" fill="#1976D2"/>
</svg>
