<svg width="21" height="21" viewBox="0 0 21 21" fill="none" xmlns="http://www.w3.org/2000/svg">
<path d="M6.28333 4.9656C6.28311 5.40762 6.1073 5.83146 5.79459 6.14386C5.48187 6.45627 5.05786 6.63165 4.61583 6.63143C4.1738 6.63121 3.74997 6.4554 3.43756 6.14268C3.12516 5.82997 2.94978 5.40596 2.95 4.96393C2.95022 4.5219 3.12602 4.09807 3.43874 3.78566C3.75146 3.47326 4.17547 3.29787 4.6175 3.2981C5.05952 3.29832 5.48336 3.47412 5.79576 3.78684C6.10817 4.09956 6.28355 4.52357 6.28333 4.9656ZM6.33333 7.8656H3V18.2989H6.33333V7.8656ZM11.6 7.8656H8.28333V18.2989H11.5667V12.8239C11.5667 9.77393 15.5417 9.4906 15.5417 12.8239V18.2989H18.8333V11.6906C18.8333 6.54893 12.95 6.7406 11.5667 9.2656L11.6 7.8656Z" fill="#0A66C2"/>
</svg>
