<svg width="25" height="25" viewBox="0 0 25 25" fill="none" xmlns="http://www.w3.org/2000/svg">
<path d="M22.662 6.45475C21.8986 6.79245 21.089 7.01423 20.26 7.11275C21.1338 6.59019 21.7877 5.76777 22.1 4.79875C21.28 5.28675 20.381 5.62875 19.444 5.81375C18.8146 5.14033 17.9804 4.69372 17.071 4.54334C16.1616 4.39296 15.2279 4.54725 14.4153 4.98221C13.6026 5.41717 12.9564 6.10844 12.5771 6.94855C12.1978 7.78866 12.1068 8.73053 12.318 9.62776C10.6551 9.54441 9.02834 9.11228 7.54329 8.35942C6.05825 7.60656 4.74813 6.5498 3.69801 5.25775C3.3263 5.89621 3.13096 6.62198 3.13201 7.36075C3.13201 8.81075 3.87001 10.0918 4.99201 10.8418C4.32802 10.8209 3.67864 10.6415 3.09801 10.3188V10.3708C3.09821 11.3365 3.43238 12.2724 4.04385 13.0198C4.65533 13.7673 5.50649 14.2802 6.45301 14.4718C5.83662 14.6388 5.19031 14.6634 4.56301 14.5438C4.82987 15.375 5.35001 16.102 6.0506 16.6229C6.75118 17.1438 7.59714 17.4325 8.47001 17.4488C7.60249 18.1301 6.60918 18.6337 5.54689 18.9309C4.48459 19.2281 3.37413 19.313 2.27901 19.1808C4.1907 20.4102 6.4161 21.0629 8.68901 21.0608C16.382 21.0608 20.589 14.6878 20.589 9.16076C20.589 8.98076 20.584 8.79875 20.576 8.62075C21.3949 8.02892 22.1016 7.29577 22.663 6.45575L22.662 6.45475Z" fill="#1DA1F2"/>
</svg>
